# xmcd
#
# Track frame offsets: 
#        182
#        8657
#        20322
#        30062
#        43972
#        54665
#        64987
#        79057
#        89262
#        99087
#
# Disc length: 1471 seconds
#
# Revision: 0
# Processed by: cddbd v1.4b42PL1 Copyright (c) Steve Scherf et al.
# Submitted via: ExactAudioCopy v0.90a11
#
DISCID=6a05bd0a
DTITLE=Conway Twitty - Sings Elvis Presley Favorites
DYEAR=1900
DGENRE=
TTITLE0=Blue Suede Shoes
TTITLE1=You'll Never Walk Alone
TTITLE2=Hound Dog
TTITLE3=I Got A Woman
TTITLE4=Blue Moon
TTITLE5=Jailhouse Rock
TTITLE6=Shake, Rattle and Roll
TTITLE7=Heartbreak Hotel
TTITLE8=Treat Me Nice
TTITLE9=Unchained Melody
EXTD=
EXTT0=
EXTT1=
EXTT2=
EXTT3=
EXTT4=
EXTT5=
EXTT6=
EXTT7=
EXTT8=
EXTT9=
PLAYORDER=
